<svg  viewBox="0 0 80 59" fill="none" xmlns="http://www.w3.org/2000/svg">
<path d="M65.7306 4.02275C53.9185 1.52072 47.3529 11.3228 40.0195 22.1747C39.7439 22.5182 39.5667 22.9303 39.4978 23.362C39.4289 23.7937 39.4879 24.2451 39.6454 24.6473C39.8128 25.0594 40.0786 25.4127 40.4231 25.6874C40.7676 25.9621 41.181 26.1388 41.6141 26.1976L45.5515 27.0316C45.9551 27.1199 46.339 27.2769 46.6835 27.5124C47.028 27.7479 47.3135 28.0423 47.5399 28.3857C47.7663 28.7291 47.9238 29.1118 47.9927 29.5239C48.0715 29.9261 48.0616 30.3481 47.973 30.7503L46.9887 35.568C46.1028 39.6988 44.8723 43.8001 46.0634 48.0094C46.7918 50.5998 48.2093 52.935 50.178 54.7797C52.1467 56.6145 54.578 57.8802 57.216 58.4395C59.8541 58.9988 62.5906 58.8222 65.14 57.9391C67.6895 57.056 69.9436 55.4959 71.6564 53.4256C73.9598 50.6979 75.0032 45.8214 75.8793 41.6513L78.9996 26.8746C81.1652 16.7684 77.5526 6.53459 65.7208 4.02275H65.7306Z" fill="#334652"/>
<path d="M13.8851 54.7502C25.6972 57.2621 32.2628 47.46 39.5962 36.5982C39.8718 36.2548 40.049 35.8427 40.1179 35.4012C40.1868 34.9694 40.1278 34.5181 39.9703 34.106C39.8029 33.6939 39.5372 33.3407 39.1926 33.0659C38.8481 32.7912 38.4347 32.6146 37.9917 32.5557L34.0543 31.7217C33.6508 31.6334 33.2669 31.4764 32.9322 31.2409C32.5975 31.0054 32.3022 30.7111 32.0758 30.3677C31.8494 30.0243 31.7018 29.6416 31.623 29.2295C31.5443 28.8272 31.5541 28.4151 31.6427 28.0128L32.627 23.205C33.5031 19.0742 34.7434 14.9728 33.5523 10.7635C32.8239 8.17317 31.4065 5.83794 29.4378 3.99331C27.4691 2.15848 25.0377 0.882937 22.3997 0.323659C19.7616 -0.235619 17.0251 -0.0688166 14.4757 0.814254C11.9262 1.69732 9.67206 3.25741 7.9593 5.32772C5.64608 8.06524 4.61252 12.9417 3.7266 17.102L0.576692 31.8689C-1.5495 41.9948 2.05321 52.2187 13.8949 54.7306L13.8851 54.7502Z" fill="#334652"/>
</svg>
